<svg width="496" height="490" viewBox="0 0 496 490" fill="none" xmlns="http://www.w3.org/2000/svg">
<path fill-rule="evenodd" clip-rule="evenodd" d="M321.672 0.683953C202.639 5.24464 92.982 79.9107 45.4798 188.75C39.5403 202.36 33.3396 219.275 33.3396 221.869C33.3396 225.466 48.0253 251.315 61.1653 270.851C65.0896 276.684 68.4207 281.726 68.5661 282.056C69.1828 283.452 63.6911 294.915 61.6033 296.59C60.1734 297.735 58.8005 300.134 57.73 303.349C55.8111 309.114 55.5106 309.53 50.1328 313.908L46.1064 317.186L34.027 316.703C18.8247 316.098 19.6261 315.566 11.7402 331.487C-4.22028 363.712 -4.29295 361.941 13.8948 383.972C28.06 401.129 28.2447 401.402 29.2031 406.518C32.1965 422.483 44.8827 430.035 64.0093 427.238C72.4216 426.008 96.3878 419.21 101.978 416.468L106.311 414.343L114.803 416.806C141.388 424.515 137.534 424.926 173.283 410.596C196.171 401.419 192.763 401.783 201.922 407.551C233.197 427.255 269.896 444.512 305.174 456.104C332.787 465.179 410.219 489.261 411.78 489.261C414.664 489.261 415.966 488.381 417.457 485.433C419.723 480.949 460.539 384.64 464.267 374.98C495.542 293.935 503.597 199.914 486.601 114.242C481.074 86.3785 467.294 40.7991 460.29 27.2114C455.879 18.6537 388.109 2.09616 352.705 0.923579C346.224 0.70949 339.683 0.448266 338.171 0.344167C336.659 0.242033 329.234 0.393264 321.672 0.683953ZM351.92 6.88469C384.29 8.76239 414.612 15.0731 443.841 26.0172L454.84 30.1359L457.837 37.5564C489.445 115.795 497.624 215.199 479.521 301.098C474.424 325.28 466.66 351.482 457.984 373.77C454.219 383.444 450.122 393.2 425.981 449.978C421.664 460.133 416.881 471.446 415.353 475.119C413.825 478.792 412.311 482.098 411.985 482.465C411.36 483.17 316.493 453.638 295.764 446.286C263.454 434.825 223.083 414.764 198.461 397.933C194.266 395.065 195.91 394.671 172.246 404.256C137.513 418.325 140.885 417.861 119.011 411.568L105.297 407.622L101.247 409.94C93.9661 414.106 65.0798 421.695 56.5044 421.695C44.2188 421.695 35.5571 414.444 35.3489 403.983C35.2703 400.031 35.2271 399.968 20.5551 382.248C9.61105 369.025 5.84191 363.938 5.84191 362.386C5.84191 359.753 12.3294 343.961 18.2728 332.131L22.8099 323.096H35.7456H48.6813L54.6346 318.237C60.2009 313.696 60.7312 312.987 62.7582 307.434C64.5671 302.473 65.2133 301.491 66.6668 301.491C68.0966 301.491 68.6584 300.69 69.8211 296.973C70.597 294.489 72.3647 290.071 73.7474 287.155L76.2595 281.854L70.868 274.192C61.5797 260.993 46.7624 236.616 41.5457 225.951L39.3753 221.514L41.9955 214.166C85.0274 93.5024 194.822 12.5865 323.636 6.60381C334.459 6.101 339.23 6.14815 351.92 6.88469ZM268.574 68.7957C258.388 74.9945 246.993 83.1593 247.464 83.9234C247.706 84.3142 247.266 84.4321 246.488 84.1865C245.221 83.7859 245.231 83.8684 246.594 84.9781C247.835 85.9896 248.365 86.0387 249.469 85.2393C255.37 80.9693 269.945 71.2509 272.137 70.1254C275.388 68.4598 280.777 68.7839 295.434 71.5298C302.791 72.9086 305.407 73.1207 307.006 72.4666C308.803 71.7321 306.989 71.186 293.179 68.3027C273.883 64.2723 276.079 64.2272 268.574 68.7957ZM345.635 71.0446C317.807 77.2905 289.311 87.7691 280.819 94.8812L278.855 96.5252L281.997 95.0069C296.502 87.991 326.871 80.2897 346.124 78.742L352.9 78.1979L351.67 74.3542C350.403 70.3925 349.863 70.096 345.635 71.0446ZM365.877 87.3625C381.315 95.0874 398.073 109.353 409.688 124.653C411.645 127.228 411.751 127.262 415.974 126.678L420.271 126.087L411.735 117.95C407.039 113.474 402.83 110.04 402.382 110.317C401.932 110.594 401.787 110.465 402.056 110.027C402.72 108.952 396.531 104.063 395.396 104.765C394.863 105.095 394.708 104.977 395.016 104.478C395.669 103.421 391.705 100.204 390.595 100.889C390.147 101.166 390.01 101.023 390.289 100.573C390.943 99.5145 387.117 96.9828 385.952 97.7036C385.437 98.0218 385.284 97.9 385.587 97.411C386.256 96.3248 380.916 93.0035 379.702 93.7538C379.139 94.1034 378.991 93.9836 379.325 93.4434C379.936 92.4535 374.427 89.4406 366.66 86.518C359.843 83.9509 359.596 84.2199 365.877 87.3625ZM220.501 91.8604C219.791 92.5694 219.791 93.0742 220.501 94.0209C221.274 95.056 221.245 95.0972 220.326 94.2762C218.595 92.7344 218.426 92.8601 211.448 100.954C201.81 112.132 195.9 120.045 196.485 120.992C196.766 121.448 196.64 121.599 196.206 121.33C195.004 120.588 190.463 127.362 190.842 129.33C191.019 130.251 190.793 131.005 190.34 131.005C189.886 131.005 189.719 130.475 189.968 129.827C190.836 127.562 189.735 128.688 186.107 133.773C182.899 138.267 182.581 139.064 183.512 140.254C184.455 141.456 184.431 141.498 183.306 140.62C181.913 139.532 181.794 139.626 179.172 143.829C177.818 145.997 177.822 146.029 179.333 145.222C180.489 144.601 181.104 144.668 181.782 145.487C182.974 146.923 181.705 147.7 179.197 147.072C177.541 146.655 176.899 147.168 174.448 150.861C171.462 155.356 170.973 156.623 172.596 155.649C173.263 155.248 173.232 155.484 172.499 156.388C171.236 157.945 170.514 158.145 171.242 156.735C171.521 156.195 171.018 156.637 170.125 157.717C169.231 158.798 168.665 160.141 168.87 160.705C169.072 161.266 168.905 161.52 168.495 161.268C167.569 160.695 165.087 165.332 165.747 166.403C166.014 166.833 165.762 167.086 165.191 166.968C164.615 166.849 164.199 167.363 164.258 168.119C164.317 168.87 164.093 169.317 163.761 169.111C162.702 168.457 157.549 179.291 156.242 184.911C154.644 191.799 155.256 197.029 158.397 203.314C160.927 208.376 162.005 209.185 160.51 204.897C155.757 191.261 171.091 160.555 201.61 122.601C205.638 117.592 208.843 113.193 208.735 112.821C208.627 112.452 208.879 112.15 209.295 112.15C209.712 112.15 212.381 109.369 215.227 105.969C220.919 99.1689 224.831 96.59 232.821 94.3666L237.857 92.9681L234 91.9684C229.137 90.7055 221.712 90.6485 220.501 91.8604ZM162.579 143.252C141.315 146.545 116.08 156.278 117.722 160.553C117.948 161.145 117.704 161.543 117.18 161.439C115.62 161.135 112.67 168.119 111.396 175.133C109.708 184.414 111.364 212.838 113.515 211.511C113.867 211.293 114.409 211.53 114.721 212.035C115.076 212.611 114.949 212.744 114.383 212.394C113.248 211.693 113.242 212.662 114.354 217.079C115.076 219.945 115.558 220.569 117.042 220.569H118.851L118.419 205.838C117.954 189.956 118.963 174.943 120.967 167.913C123.188 160.114 129.246 156.771 156.013 148.574C163.94 146.147 168.614 144.314 169.178 143.409C169.661 142.637 169.964 142.038 169.852 142.081C169.742 142.122 166.468 142.649 162.579 143.252ZM242.461 161.253C241.613 162.333 240.574 163.217 240.155 163.217C238.948 163.217 235.123 167.326 234.104 169.72C232.863 172.633 224.193 182.247 219.363 186.065L215.488 189.128L218.102 188.67C232.069 186.223 242.106 176.202 244.186 162.628C244.779 158.754 244.563 158.582 242.461 161.253ZM325.208 176.247C313.8 178.771 303.267 185.364 293.016 196.397C285.688 204.285 285.615 205.015 292.603 200.529C304.036 193.191 308.746 190.208 309.888 189.583C310.536 189.228 305.873 193.942 299.525 200.058L287.986 211.179L289.211 214.107C293.03 223.217 290.851 235.257 284.024 242.762L280.271 246.888L278.517 257.495C275.84 273.669 270.034 295.225 268.36 295.198C268.081 295.192 265.006 289.853 261.521 283.335C258.037 276.814 254.996 271.426 254.761 271.361C254.527 271.296 245.826 278.845 235.426 288.135L216.515 305.026L216.456 310.164C216.335 320.531 212.106 331.173 205.006 338.986L200.928 343.474L196.786 335.409C194.507 330.976 192.341 327.451 191.972 327.578C191.602 327.706 185.457 333.054 178.315 339.463L165.328 351.116L165.321 361.069C165.315 366.543 165.085 372.388 164.81 374.057C164.189 377.807 163.044 378.103 182.507 369.467C230.205 348.298 273.243 327.009 287.497 317.53C311.775 301.385 334.001 274.759 348.433 244.531L352.185 236.675L353.108 239.032C354.758 243.253 353.695 253.179 350.879 259.824C347.99 266.645 349.524 265.797 354.198 257.988C365.323 239.407 366.464 207.131 356.62 189.473C349.855 177.341 339.664 173.049 325.208 176.247ZM126.439 225.026C113.108 226.687 108.22 230.741 104.437 243.27C103.828 245.29 110.309 245.26 111.013 243.241C114.369 233.603 119.001 228.689 127.164 226.1C131.738 224.649 131.563 224.387 126.439 225.026ZM107.768 251.278C101.443 252.769 93.695 258.504 95.0483 260.694C95.3979 261.262 95.3252 261.466 94.8715 261.185C94.4433 260.92 93.4888 261.971 92.7522 263.517C91.5325 266.076 91.5266 266.286 92.6913 265.838C93.3965 265.569 95.3311 265.131 96.9908 264.866C99.6443 264.44 100.361 263.811 102.919 259.671C106.157 254.421 109.734 252.264 116.968 251.204L120.939 250.62L115.833 250.601C113.024 250.591 109.394 250.895 107.768 251.278ZM264.703 261.592L258.428 267.647L262.745 275.928C265.119 280.481 267.288 284.207 267.563 284.207C268.891 284.207 272.029 260.999 271.249 256.949C271.039 255.853 269.57 256.894 264.703 261.592ZM107.19 270.136C95.995 271.577 87.2409 276.295 88.7022 280.102C88.9222 280.675 88.7886 280.95 88.4037 280.712C87.4589 280.131 84.2496 285.676 84.9115 286.746C85.2473 287.286 85.0607 287.361 84.3949 286.949C83.6328 286.477 83.4934 286.668 83.8705 287.654C84.1553 288.396 84.0767 288.811 83.6957 288.575C83.0102 288.151 76.5502 299.759 76.5502 301.414C76.5502 301.907 78.0037 302.277 79.9383 302.277H83.3284L87.9284 293.593C97.3463 275.82 97.7568 275.415 110.726 271.155C116.481 269.266 115.701 269.04 107.19 270.136ZM398.933 280.439C398.511 280.999 397.157 283.755 395.928 286.564C386.596 307.862 368.383 327.512 344.711 341.812L339.86 344.743L343.221 352.383C345.069 356.584 347.396 361.738 348.394 363.838L350.209 367.654L353.856 367.171C358.91 366.499 403.411 354.546 409.665 352.179C417.814 349.093 413.11 351.878 393.618 361.677C377.072 369.993 367.884 375.725 357.508 384.198L355.239 386.052L356.188 398.846C357.413 415.372 356.516 414.078 365.136 411.749C378.115 408.239 382.338 406.781 387.541 404.02C394.038 400.569 394.042 400.585 388.765 408.017C380.995 418.957 373.971 425.089 363.084 430.439C359.674 432.117 357.604 433.643 357.347 434.672C356.905 436.428 359.142 448.423 360.094 449.411C360.65 449.986 398.228 462.079 401.29 462.669C403.794 463.15 438.736 379.906 438.73 373.466C438.718 354.004 424.842 318.231 411.804 304.048C409.521 301.565 409.718 301.544 420.664 303.082C426.065 303.842 430.634 304.323 430.815 304.152C431.734 303.288 414.813 288.105 408.85 284.444C400.785 279.493 399.915 279.141 398.933 280.439ZM216.268 283.945C215.761 285.169 215.193 288.999 215.007 292.456L214.667 298.741L217.299 296.394C218.747 295.104 221.07 293.01 222.463 291.745L224.992 289.441L221.706 285.841C217.57 281.313 217.387 281.249 216.268 283.945ZM69.1455 314.258C68.1438 316.526 63.8954 327.394 59.704 338.408L52.0832 358.433L53.4011 361.192L54.721 363.95L61.6838 343.523C73.3016 309.449 72.2233 311.889 76.0278 311.037L79.3 310.302L75.1321 310.217L70.9643 310.133L69.1455 314.258ZM204.46 315.803L198.414 321.285L201.291 327.101C202.875 330.299 204.465 332.917 204.827 332.917C206.85 332.917 211.299 317.826 210.764 312.779L210.503 310.322L204.46 315.803ZM53.3736 326.716C51.6452 328.036 50.3273 329.466 50.4471 329.896C50.5649 330.324 50.3351 330.475 49.9364 330.228C49.0349 329.67 38.3756 337.917 37.2325 340.054C36.6138 341.207 37.2894 340.942 39.833 339.033C41.7224 337.613 45.9473 334.861 49.2234 332.917C54.0218 330.069 59.4113 323.803 56.6399 324.296C56.5712 324.308 55.102 325.398 53.3736 326.716ZM24.3616 337.041C22.5075 341.038 19.8284 347.412 18.4103 351.205L15.8314 358.101L17.3182 360.9C18.9583 363.989 35.2487 385.972 36.4468 386.712C36.8593 386.965 33.5026 380.562 28.9891 372.482C19.5534 355.591 19.8638 358.26 25.597 343.419C28.9498 334.736 31.676 331.412 35.561 331.267L37.6606 331.188L35.6965 330.56C34.6163 330.214 32.3831 329.896 30.7332 329.853L27.732 329.774L24.3616 337.041ZM158.256 334.276C158.25 335.761 162.504 344.702 163.215 344.702C163.651 344.702 166.022 342.781 168.483 340.432L172.959 336.163L167.377 335.289C164.305 334.81 160.998 334.25 160.025 334.044C159.053 333.84 158.256 333.944 158.256 334.276ZM299.254 360.259C295.381 367.039 292.26 373.026 292.319 373.564C292.377 374.1 292.173 374.383 291.865 374.193C290.979 373.645 284.582 385.437 285.21 386.457C285.536 386.983 285.434 387.158 284.969 386.871C284.511 386.588 280.99 391.891 276.833 399.123C272.801 406.137 268.855 412.984 268.064 414.341L266.624 416.808L276.274 420.905C281.583 423.156 286.367 425.177 286.907 425.395C287.658 425.698 287.895 423.687 287.917 416.869C287.978 397.197 292.988 384.125 303.789 375.464C307.254 372.684 314.527 369.057 316.634 369.057C317.296 369.057 317.614 368.697 317.343 368.257C317.072 367.819 316.465 367.697 315.998 367.986C315.529 368.277 315.366 368.157 315.635 367.721C315.904 367.285 313.912 362.656 311.211 357.431L306.297 347.931L299.254 360.259ZM155.704 359.778C151.13 363.647 151.12 363.966 155.445 368.208L158.916 371.616L159.426 368.177C159.707 366.283 159.823 362.911 159.686 360.68L159.436 356.624L155.704 359.778Z" fill="#CBE785"/>
<path fill-rule="evenodd" clip-rule="evenodd" d="M326.583 0.373612C328.203 0.544491 330.855 0.544491 332.475 0.373612C334.095 0.204698 332.77 0.0652502 329.529 0.0652502C326.288 0.0652502 324.962 0.204698 326.583 0.373612ZM338.743 0.369686C340.137 0.542529 342.612 0.546454 344.242 0.375575C345.872 0.204697 344.731 0.0632744 341.706 0.0593461C338.682 0.0554179 337.348 0.19488 338.743 0.369686ZM331.689 6.66666C333.958 6.82575 337.67 6.82575 339.939 6.66666C342.207 6.50756 340.351 6.37792 335.814 6.37792C331.277 6.37792 329.421 6.50756 331.689 6.66666ZM271.194 70.5634C269.574 71.4197 268.248 72.2957 268.248 72.5138C268.248 72.7298 269.397 72.2918 270.802 71.5376C272.206 70.7834 275.476 69.9447 278.069 69.6717L282.783 69.1787L278.462 69.0942C275.537 69.0353 273.188 69.5106 271.194 70.5634ZM255.79 80.6766C253.474 82.3501 251.176 84.1689 250.683 84.7149C249.697 85.8089 257.726 80.3133 259.579 78.6281C261.684 76.7111 260.048 77.5969 255.79 80.6766ZM347.805 78.9305C349.001 79.1112 350.769 79.1073 351.733 78.9207C352.7 78.7341 351.723 78.5849 349.563 78.5907C347.402 78.5966 346.611 78.7498 347.805 78.9305ZM339.546 79.7064C340.518 79.8949 342.109 79.8949 343.081 79.7064C344.053 79.5198 343.258 79.3666 341.314 79.3666C339.369 79.3666 338.574 79.5198 339.546 79.7064ZM358.205 84.652C360.352 85.5732 360.955 85.5732 360.955 84.652C360.955 84.2199 359.983 83.8919 358.794 83.9214C356.879 83.9705 356.812 84.053 358.205 84.652ZM306.352 86.2233C305.362 86.6495 305.217 86.899 305.959 86.899C306.608 86.899 307.845 86.5945 308.709 86.2233C309.699 85.7971 309.844 85.5477 309.102 85.5477C308.454 85.5477 307.216 85.8521 306.352 86.2233ZM364.948 87.2859C365.999 88.1796 372.739 91.8053 372.739 91.4793C372.739 90.9981 366.012 87.009 365.201 87.009C364.883 87.009 364.769 87.1347 364.948 87.2859ZM224.056 90.7054C225.028 90.894 226.619 90.894 227.591 90.7054C228.563 90.5188 227.768 90.3656 225.823 90.3656C223.879 90.3656 223.083 90.5188 224.056 90.7054ZM232.957 92.5831C229.911 93.7989 232.085 94.946 236.335 94.3646C238.561 94.0582 239.684 93.6064 239.107 93.249C238.57 92.917 237.284 92.9701 236.247 93.3629C233.242 94.506 231.421 94.1446 234.073 92.9288C236.75 91.7032 235.854 91.4243 232.957 92.5831ZM284.853 93.7184C281.663 95.1031 281.349 95.1306 282.072 93.958C282.433 93.3747 282.286 93.2647 281.657 93.6536C279.192 95.1777 282.378 95.5863 285.595 94.1603C287.506 93.3118 288.714 92.6087 288.282 92.5949C287.85 92.5812 286.306 93.086 284.853 93.7184ZM377.453 94.3666C377.453 94.5826 378.514 95.5136 379.81 96.4367C381.107 97.3599 382.167 97.9373 382.167 97.7213C382.167 97.5052 381.107 96.5742 379.81 95.6511C378.514 94.728 377.453 94.1505 377.453 94.3666ZM114.617 98.2044L111.512 101.543L114.851 98.4382C117.956 95.549 118.551 94.8654 117.956 94.8654C117.828 94.8654 116.326 96.368 114.617 98.2044ZM227.787 96.0714C225.823 97.0181 225.757 97.1261 227.395 96.7274C229.62 96.1834 232.122 94.9067 230.93 94.9244C230.498 94.9303 229.084 95.4468 227.787 96.0714ZM278.037 96.4701C276.765 97.8764 276.751 98.012 277.916 97.5641C278.648 97.2833 279.247 96.7176 279.247 96.3071C279.247 95.8946 279.656 95.8102 280.155 96.1186C280.717 96.4662 280.848 96.3346 280.5 95.7729C279.768 94.5865 279.734 94.5964 278.037 96.4701ZM221.227 99.5852C219.434 100.884 217.967 102.139 217.967 102.374C217.967 102.744 222.394 99.7306 224.606 97.8548C226.466 96.2776 224.166 97.4542 221.227 99.5852ZM382.953 98.2123C382.953 98.3969 384.809 100.096 387.078 101.987C389.346 103.881 390.705 104.806 390.098 104.046C388.881 102.518 382.953 97.6781 382.953 98.2123ZM215.551 105.668L213.646 107.829L215.669 106.053C216.78 105.077 217.986 104.547 218.348 104.875C218.709 105.203 218.751 105.03 218.44 104.49C217.696 103.197 217.747 103.176 215.551 105.668ZM396.702 110.578C399.703 113.603 402.337 116.078 402.553 116.078C402.769 116.078 400.489 113.603 397.487 110.578C394.486 107.554 391.852 105.079 391.636 105.079C391.42 105.079 393.701 107.554 396.702 110.578ZM210.896 110.765C209.384 112.14 208.278 113.405 208.441 113.574C208.602 113.745 207.38 115.504 205.726 117.484C204.071 119.464 203.126 120.831 203.625 120.523C204.465 120.002 214.3 108.194 213.848 108.245C213.736 108.257 212.408 109.392 210.896 110.765ZM405.686 120.595C407.577 122.864 409.276 124.72 409.461 124.72C409.995 124.72 405.155 118.792 403.627 117.575C402.867 116.968 403.792 118.327 405.686 120.595ZM197.892 127.273C191.789 134.93 191.504 135.32 192.455 134.753C193.394 134.193 203.265 121.577 202.766 121.577C202.582 121.577 200.388 124.141 197.892 127.273ZM189.475 128.332C188.872 128.935 189.654 131.005 190.483 131.005C191.155 131.005 191.062 128.98 190.361 128.279C190.133 128.049 189.735 128.075 189.475 128.332ZM188.796 136.774C189.277 137.353 189.409 138.145 189.088 138.534C188.766 138.921 189.242 138.622 190.139 137.87C191.039 137.118 191.976 136.703 192.221 136.949C192.469 137.194 192.883 137.049 193.144 136.627C193.682 135.754 192.148 135.843 190.666 136.77C190.112 137.116 189.683 137.019 189.683 136.552C189.683 136.094 189.287 135.719 188.802 135.719C188.153 135.719 188.151 135.998 188.796 136.774ZM186.541 142.004C185.618 143.301 185.04 144.361 185.256 144.361C185.472 144.361 186.403 143.301 187.327 142.004C188.25 140.708 188.827 139.647 188.611 139.647C188.395 139.647 187.464 140.708 186.541 142.004ZM167.501 142.56C168.528 142.759 169.058 143.261 168.754 143.752C168.438 144.265 168.595 144.377 169.149 144.035C170.502 143.198 169.429 141.989 167.442 142.11C165.735 142.218 165.735 142.22 167.501 142.56ZM178.292 144.361C178.024 144.793 178.072 145.147 178.396 145.147C178.72 145.147 178.366 145.599 177.612 146.151C176.418 147.025 176.654 147.148 179.427 147.111C181.179 147.087 182.613 147.186 182.613 147.329C182.613 148.407 178.869 152.711 178.076 152.546C177.526 152.43 177.431 152.514 177.867 152.73C178.366 152.98 178.219 153.98 177.475 155.421C175.622 159.004 176.73 158.116 179.048 154.162C180.266 152.082 181.487 150.829 181.992 151.141C182.512 151.464 182.632 151.312 182.293 150.762C181.982 150.261 182.532 148.704 183.514 147.302C184.496 145.901 184.744 145.2 184.06 145.746C183.053 146.553 182.644 146.526 181.874 145.597C181.354 144.968 180.364 144.67 179.676 144.935C178.847 145.253 178.618 145.104 178.995 144.495C179.307 143.99 179.386 143.576 179.17 143.576C178.954 143.576 178.559 143.929 178.292 144.361ZM162.186 146.685C159.809 147.478 158.163 148.164 158.529 148.209C159.487 148.325 167.685 145.885 167.685 145.485C167.685 144.952 166.8 145.145 162.186 146.685ZM151.58 149.861C150.59 150.287 150.444 150.536 151.187 150.536C151.835 150.536 153.072 150.232 153.937 149.861C154.926 149.435 155.072 149.185 154.329 149.185C153.681 149.185 152.444 149.49 151.58 149.861ZM139.009 154.209C137.045 155.156 136.978 155.264 138.616 154.865C140.842 154.321 143.344 153.045 142.152 153.062C141.72 153.068 140.306 153.585 139.009 154.209ZM170.388 156.223C169.708 157.322 171.421 157.717 172.297 156.661C172.949 155.877 172.867 155.622 171.959 155.622C171.299 155.622 170.592 155.893 170.388 156.223ZM128.992 158.167C125.946 159.819 126.292 160.39 129.385 158.815C132.347 157.311 132.871 156.92 131.874 156.963C131.477 156.981 130.18 157.523 128.992 158.167ZM172.435 163.944C170.687 166.935 169.259 169.675 169.259 170.032C169.261 170.388 169.897 169.62 170.671 168.324C174.56 161.81 176.357 158.503 176.003 158.503C175.787 158.503 174.181 160.95 172.435 163.944ZM123.691 162.034C122.68 163.115 121.998 164.128 122.181 164.289C122.361 164.45 123.334 163.566 124.337 162.327C126.588 159.554 126.191 159.375 123.691 162.034ZM333.516 164.857C317.471 168.005 302.292 178.602 292.531 193.468C286.538 202.593 286.615 203.194 292.914 196.461C312.608 175.412 336.941 169.013 350.337 181.359C365.942 195.745 367.923 235.064 354.198 257.988C349.524 265.797 347.99 266.645 350.879 259.824C353.695 253.179 354.758 243.253 353.108 239.032L352.185 236.675L348.433 244.531C329.912 283.325 305.38 308.966 267.855 328.753C242.742 341.995 175.744 373.464 166.252 376.477C165.165 376.821 164.557 377.787 164.393 379.425L164.15 381.861L155.922 375.161L147.695 368.463L132.353 383.884C123.915 392.365 117.365 399.536 117.797 399.819C118.229 400.101 122.406 400.979 127.081 401.769L135.578 403.203L143.187 400.604C147.37 399.174 165.996 392.229 184.577 385.168C203.157 378.107 228.789 368.402 241.536 363.6C298.46 342.16 313.777 335.305 337.354 320.718C398.23 283.054 412.519 228.08 373.244 182.636C359.782 167.061 348.353 161.946 333.516 164.857ZM167.255 173.503C166.564 174.84 166.138 176.072 166.309 176.243C166.479 176.414 167.206 175.32 167.925 173.813C169.539 170.425 168.98 170.166 167.255 173.503ZM119.199 179.323C119.205 181.483 119.358 182.275 119.539 181.08C119.72 179.884 119.716 178.117 119.529 177.152C119.342 176.186 119.193 177.162 119.199 179.323ZM118.514 198.964C118.516 206.742 118.633 209.818 118.775 205.799C118.918 201.78 118.918 195.417 118.775 191.657C118.63 187.898 118.514 191.186 118.514 198.964ZM161.85 187.236C161.559 188.387 161.475 189.481 161.659 189.666C161.846 189.85 162.233 189.061 162.522 187.908C162.812 186.757 162.897 185.663 162.712 185.478C162.526 185.293 162.139 186.083 161.85 187.236ZM306.228 192.03C306.521 192.323 305.961 193.472 304.985 194.584L303.21 196.607L305.347 194.725C307.214 193.079 307.619 191.5 306.175 191.5C305.912 191.5 305.936 191.74 306.228 192.03ZM110.516 197C110.516 198.512 110.677 199.131 110.875 198.375C111.072 197.618 111.072 196.381 110.875 195.625C110.677 194.869 110.516 195.487 110.516 197ZM160.106 200.692C160.171 204.233 160.442 206.885 160.711 206.585C160.978 206.282 160.927 203.383 160.595 200.142L159.99 194.25L160.106 200.692ZM495.583 205.642C495.583 209.747 495.717 211.426 495.878 209.374C496.039 207.321 496.039 203.962 495.878 201.91C495.717 199.857 495.583 201.537 495.583 205.642ZM289.805 208.981L287.497 211.534L290.05 209.226C291.454 207.957 292.603 206.808 292.603 206.673C292.603 206.066 291.955 206.6 289.805 208.981ZM119.199 217.034C119.205 219.194 119.358 219.986 119.539 218.792C119.72 217.595 119.716 215.828 119.529 214.863C119.342 213.897 119.193 214.873 119.199 217.034ZM131.938 224.497C131.318 225.501 133.922 225.501 135.474 224.497C136.395 223.902 136.193 223.733 134.539 223.723C133.376 223.718 132.206 224.065 131.938 224.497ZM126.79 225.191C128.548 225.682 128.427 225.813 125.339 226.738C123.483 227.294 122.116 227.899 122.3 228.084C122.485 228.27 124.536 227.775 126.859 226.986C130.954 225.593 130.526 224.328 126.046 224.586C125.398 224.623 125.732 224.896 126.79 225.191ZM494.698 232.354C494.698 233.866 494.859 234.485 495.057 233.729C495.253 232.973 495.253 231.735 495.057 230.979C494.859 230.223 494.698 230.841 494.698 232.354ZM111.119 243.221C111.119 243.726 110.323 244.18 109.351 244.229C107.896 244.305 107.841 244.388 109.041 244.696C110.608 245.099 112.543 243.728 111.655 242.842C111.36 242.548 111.119 242.718 111.119 243.221ZM117.797 250.459C123.273 251.313 128.749 251.29 126.046 250.424C124.966 250.078 121.784 249.807 118.975 249.821L113.868 249.848L117.797 250.459ZM113.083 252.032C111.987 252.527 112.464 252.598 114.654 252.266C116.383 252.003 117.944 251.657 118.125 251.498C118.798 250.903 114.591 251.349 113.083 252.032ZM104.834 256.709C103.91 258.005 103.333 259.066 103.549 259.066C103.765 259.066 104.696 258.005 105.619 256.709C106.542 255.413 107.12 254.352 106.904 254.352C106.688 254.352 105.757 255.413 104.834 256.709ZM101.298 262.208C100.628 263.505 100.255 264.565 100.471 264.565C100.687 264.565 101.414 263.505 102.084 262.208C102.754 260.912 103.127 259.851 102.911 259.851C102.695 259.851 101.968 260.912 101.298 262.208ZM115.833 269.279C115.833 270.212 117.198 270.212 119.368 269.279C120.684 268.714 120.525 268.596 118.386 268.549C116.982 268.519 115.833 268.847 115.833 269.279ZM98.5483 276.421C97.2442 277.487 97.1126 277.754 98.1555 277.214C100.719 275.891 102.139 274.802 101.298 274.808C100.866 274.812 99.6286 275.537 98.5483 276.421ZM93.1824 284.01C89.2541 290.775 86.6202 295.991 87.129 295.991C87.347 295.991 88.5765 293.958 89.8591 291.474C91.1397 288.989 93.2747 285.1 94.5985 282.832C95.9243 280.563 96.8396 278.707 96.6353 278.707C96.4291 278.707 94.8754 281.093 93.1824 284.01ZM393.759 288.331C381.794 306.138 354.915 327.15 330.963 337.422C327.17 339.049 324.057 340.649 324.047 340.979C323.978 343.291 339.448 371.793 342.343 374.688C344.325 376.669 354.167 373.749 383.738 362.398C405.627 353.996 405.291 353.925 378.025 361.192C366.692 364.213 355.797 366.904 353.815 367.173L350.213 367.664L348.396 363.842C347.398 361.74 345.069 356.584 343.221 352.383L339.86 344.743L344.711 341.812C367.715 327.914 386.528 307.894 395.372 287.899C397.464 283.173 397.173 283.252 393.759 288.331ZM423.414 295.991C425.979 298.584 428.255 300.705 428.471 300.705C428.687 300.705 426.765 298.584 424.199 295.991C421.634 293.399 419.358 291.277 419.142 291.277C418.926 291.277 420.849 293.399 423.414 295.991ZM214.237 295.598C214.245 297.327 214.406 297.942 214.594 296.964C214.783 295.987 214.775 294.573 214.579 293.821C214.382 293.071 214.227 293.87 214.237 295.598ZM84.2829 300.271C83.7998 301.33 82.6586 302.341 81.7453 302.522C80.1386 302.838 80.1406 302.852 81.8337 302.956C83.0396 303.029 83.9589 302.331 84.7995 300.705C85.4693 299.409 85.8248 298.348 85.5891 298.348C85.3514 298.348 84.7641 299.214 84.2829 300.271ZM70.6912 310.078C70.4438 310.481 70.6539 311.066 71.1587 311.378C71.7715 311.757 71.8677 311.604 71.4455 310.923C70.9407 310.105 71.8658 309.984 76.0278 310.318C78.9641 310.553 81.0559 310.433 80.8143 310.043C80.2427 309.116 71.2667 309.147 70.6912 310.078ZM74.0636 311.447C72.7162 311.804 71.4808 313.969 72.2115 314.698C72.4373 314.923 72.622 314.68 72.622 314.153C72.622 313.629 73.771 312.7 75.1753 312.089C77.5794 311.044 76.9529 310.683 74.0636 311.447ZM24.8939 316.175C25.65 316.371 26.8874 316.371 27.6436 316.175C28.3998 315.976 27.7811 315.815 26.2687 315.815C24.7564 315.815 24.1377 315.976 24.8939 316.175ZM70.3514 318.076C69.8683 319.464 69.609 320.739 69.7779 320.906C69.9468 321.075 70.4791 320.075 70.9642 318.689C71.4474 317.3 71.7067 316.025 71.5378 315.858C71.3689 315.689 70.8366 316.689 70.3514 318.076ZM27.5356 329.633C27.3156 329.986 28.1798 330.122 29.4526 329.935C30.7273 329.749 31.7683 329.46 31.7683 329.293C31.7683 328.694 27.9245 329.002 27.5356 329.633ZM31.4658 332.985C30.3188 333.889 28.8575 335.639 28.2171 336.874C26.3807 340.428 26.8894 340.72 28.8476 337.238C29.8513 335.45 31.7958 333.502 33.3514 332.722C34.8578 331.966 35.5178 331.347 34.8205 331.347C34.1233 331.345 32.6128 332.084 31.4658 332.985ZM47.6776 333.793C45.0005 335.507 44.1324 336.66 46.4992 335.358C48.3022 334.368 51.1266 332.184 50.6238 332.168C50.4078 332.163 49.082 332.893 47.6776 333.793ZM59.9652 348.52C57.2409 356.732 54.6778 363.241 54.2673 362.989C53.8469 362.728 53.7841 362.952 54.1259 363.504C54.4578 364.04 54.9979 364.184 55.3259 363.822C56.1332 362.934 65.6061 334.282 65.2212 333.897C65.0542 333.73 62.6894 340.31 59.9652 348.52ZM38.847 339.587C38.3127 340.229 37.5074 340.528 37.0576 340.251C36.5823 339.956 36.4743 340.125 36.8004 340.651C37.1087 341.15 37.0243 341.559 36.6118 341.559C36.2013 341.559 35.6278 342.178 35.339 342.934C35.0484 343.696 36.0599 343.103 37.6115 341.602C39.1514 340.111 40.4104 338.786 40.4104 338.656C40.4104 338.102 39.7524 338.493 38.847 339.587ZM25.5695 343.217C25.0863 344.605 24.8271 345.88 24.996 346.047C25.1649 346.216 25.6972 345.216 26.1823 343.829C26.6655 342.441 26.9248 341.166 26.7558 340.999C26.5869 340.83 26.0547 341.83 25.5695 343.217ZM22.8217 350.692C22.1244 352.737 21.5804 354.787 21.6118 355.251C21.6432 355.714 22.3503 354.176 23.1811 351.835C24.012 349.494 24.556 347.441 24.391 347.274C24.2241 347.109 23.519 348.645 22.8217 350.692ZM23.519 362.771C24.1887 364.068 24.9155 365.128 25.1315 365.128C25.3476 365.128 24.9744 364.068 24.3046 362.771C23.6349 361.475 22.9081 360.414 22.6921 360.414C22.476 360.414 22.8492 361.475 23.519 362.771ZM164.794 368.271C164.794 371.08 164.938 372.229 165.11 370.824C165.285 369.42 165.285 367.122 165.11 365.718C164.938 364.313 164.794 365.462 164.794 368.271ZM27.0544 369.057C27.9363 370.785 28.8339 372.199 29.0499 372.199C29.266 372.199 28.7219 370.785 27.84 369.057C26.9581 367.328 26.0605 365.914 25.8445 365.914C25.6284 365.914 26.1725 367.328 27.0544 369.057ZM313.816 369.878C312.956 370.461 313.274 370.534 314.994 370.149C317.884 369.502 318.51 369.053 316.501 369.068C315.672 369.074 314.464 369.44 313.816 369.878ZM307.487 372.914C305.567 374.169 302.935 376.155 301.638 377.325L299.281 379.453L302.031 377.388C303.544 376.253 306.549 374.271 308.709 372.983C310.87 371.696 312.264 370.64 311.809 370.636C311.353 370.632 309.408 371.657 307.487 372.914ZM372.739 371.796C371.659 372.409 365.737 375.092 359.58 377.758L348.384 382.605V388.598C348.386 394.121 350.238 413.457 351.16 417.57C351.857 420.674 360.173 418.336 373.918 411.175C381.641 407.151 381.441 407.145 367.633 411.002C361.043 412.843 358.052 413.371 357.692 412.756C357.213 411.929 355.455 392.259 355.455 387.718C355.455 385.985 356.968 384.526 364.687 378.806C376.167 370.3 377.642 369.017 372.739 371.796ZM438.958 374.163C438.964 376.324 439.117 377.115 439.298 375.921C439.478 374.725 439.474 372.957 439.288 371.993C439.101 371.027 438.952 372.003 438.958 374.163ZM30.9826 376.127C31.8645 377.856 32.7621 379.27 32.9782 379.27C33.1942 379.27 32.6502 377.856 31.7683 376.127C30.8864 374.399 29.9888 372.985 29.7727 372.985C29.5567 372.985 30.1007 374.399 30.9826 376.127ZM34.8618 383.1C35.7162 384.775 36.2033 386.358 35.944 386.618C35.6847 386.877 36.052 387.313 36.763 387.584C37.4721 387.857 38.0535 388.517 38.0535 389.053C38.0535 389.587 38.7998 390.699 39.7112 391.522C41.3434 392.995 41.3414 392.97 39.6346 390.073C38.68 388.452 37.5212 387.126 37.0596 387.126C36.598 387.126 36.4409 386.906 36.71 386.635C37.2069 386.14 34.4238 380.056 33.701 380.056C33.4849 380.056 34.0074 381.427 34.8618 383.1ZM294.224 386.655C292.379 389.639 289.441 397.695 289.496 399.624C289.516 400.312 290.353 398.342 291.354 395.246C292.358 392.151 293.961 388.35 294.919 386.8C295.876 385.251 296.483 383.984 296.266 383.984C296.05 383.984 295.131 385.186 294.224 386.655ZM288.858 403.625C288.858 405.137 289.019 405.756 289.217 405C289.414 404.244 289.414 403.006 289.217 402.25C289.019 401.494 288.858 402.113 288.858 403.625ZM288.194 416.588C288.196 422.206 288.322 424.402 288.473 421.465C288.624 418.531 288.624 413.935 288.471 411.252C288.318 408.571 288.194 410.971 288.194 416.588ZM386.105 410.293C381.297 415.41 363.547 425.672 353.295 429.263L349.17 430.706L349.217 434.646C349.341 445.16 350.217 446.981 355.956 448.66L359.99 449.841L358.979 446.001C356.041 434.864 356.323 433.837 363.312 430.345C372.761 425.625 380.702 419.089 386.463 411.285C388.959 407.907 388.788 407.435 386.105 410.293Z" fill="#6C9D5D"/>
<path fill-rule="evenodd" clip-rule="evenodd" d="M314.209 23.342C199.337 32.4909 100.497 105.963 60.0791 212.249L56.8796 220.659L63.2767 231.81C70.5027 244.404 84.4951 266.121 85.3887 266.131C85.7128 266.135 85.9819 265.518 85.9878 264.762C86.0016 262.892 89.9926 255.155 92.8465 251.469C94.1271 249.813 95.9793 246.162 96.9633 243.353C99.4381 236.286 102.958 229.419 106.073 225.58L108.703 222.341L106.723 214.973C98.9019 185.845 100.114 165.079 110.166 155.997C118.944 148.066 141.062 139.52 168.08 133.616L177.995 131.449L183.601 123.567C196.12 105.969 214.919 81.3523 217.433 79.2684C218.515 78.3727 219.9 78.4493 226.393 79.7712L234.073 81.3346L242.322 76.0099C251.868 69.8485 267.498 60.3284 271.155 58.4487C275.311 56.3098 278.527 56.7438 313.311 64.1388C323.503 66.3052 324.404 66.3798 327.453 65.2917C332.591 63.4592 348.779 59.6331 353.807 59.0654C358.969 58.4801 358.696 58.1561 359.819 66.1893C360.576 71.5867 361.24 72.5864 365.5 74.747C392.324 88.3465 422.131 111.433 433.211 127.187L437.277 132.969L431.702 133.362L426.128 133.755L429.54 137.683C445.384 155.928 461.007 182.157 468.991 203.911C470.529 208.103 472.138 212.241 472.562 213.105C473.499 215.003 472.876 184.123 471.692 169.895C468.235 128.373 458.687 85.422 444.836 49.0799C442.151 42.0326 443.242 42.7358 426.376 37.1969C391.621 25.7834 349.26 20.551 314.209 23.342ZM270.106 71.9776C267.887 73.2012 262.156 76.9704 257.369 80.3526L248.666 86.5022L256.444 89.5466L264.222 92.593L277.038 86.3962C284.087 82.9884 293.106 78.8284 297.084 77.151C301.061 75.4737 304.223 74.0124 304.113 73.9004C303.53 73.3191 280.732 69.7267 277.696 69.7385C275.286 69.7483 272.84 70.4711 270.106 71.9776ZM353.098 78.0919C353.098 78.5986 350.032 79.1584 345.438 79.4923C328.317 80.7316 306.274 86.0603 287.56 93.4827C281.907 95.7257 277.018 97.4836 276.694 97.3913C274.184 96.6724 277.395 99.1256 283.781 102.801L291.425 107.2L300.067 107.691C330.236 109.404 357.087 131.536 366.947 162.814C368.249 166.947 368.87 167.707 374.059 171.547C388.001 181.856 398.108 201.063 405.377 231.071C408.96 245.855 407.766 260.586 401.95 273.416L399.605 278.585L405.617 282.083C416.588 288.471 433.623 303.587 430.881 304.502C430.1 304.761 419.324 303.534 413.772 302.55L411.203 302.096L416.669 310.239C429.579 329.468 437.394 350.329 439.137 370.208L439.685 376.465L441.603 371.779C460.524 325.543 475.726 250.936 470.217 231.36C466.448 217.971 458.996 200.176 451.074 185.649C446.317 176.928 437.31 162.431 436.646 162.431C436.448 162.431 436.536 162.84 436.844 163.339C437.194 163.904 437.06 164.032 436.485 163.676C435.98 163.364 435.778 162.763 436.039 162.343C436.638 161.373 434.861 159.161 433.939 159.731C433.562 159.964 433.462 159.607 433.719 158.937C433.977 158.265 433.796 157.717 433.319 157.717C432.84 157.717 432.449 157.23 432.449 156.635C432.449 156.04 431.83 155.068 431.074 154.475C429.799 153.475 429.785 153.51 430.877 154.968C431.969 156.423 431.954 156.46 430.689 155.468C429.939 154.879 429.503 154.105 429.724 153.75C430.174 153.019 420.841 141.578 413.116 133.39C408.667 128.672 408.229 127.949 409.685 127.725C411.148 127.501 410.59 126.549 405.157 120.006C395.616 108.514 377.153 92.6381 374.509 93.6516C373.924 93.8775 373.641 93.7439 373.881 93.355C374.383 92.5419 365.415 87.3429 360.169 85.4043C357.353 84.3613 356.274 83.4009 354.866 80.6727C353.894 78.7891 353.098 77.6283 353.098 78.0919ZM235.644 94.4491C226.68 96.3503 217.313 101.457 218.259 103.924C218.499 104.549 218.314 104.977 217.847 104.873C215.781 104.417 181.149 148.916 182.222 150.648C182.501 151.1 182.314 151.373 181.807 151.255C180.629 150.978 169.351 170.113 166.036 178.014C160.899 190.261 159.418 200.132 161.744 206.651C162.716 209.374 162.697 209.546 161.514 208.702C160.803 208.195 161.764 209.156 163.649 210.837C170.671 217.093 179.252 221.453 190.243 224.348L195.124 225.633L197.566 223.297C198.909 222.013 200.73 219.795 201.614 218.367C202.495 216.939 203.328 215.881 203.462 216.014C203.729 216.281 201.951 224.735 200.628 229.49L199.783 232.521L195.33 231.965C180.103 230.062 158.222 220.131 152.817 212.667C143.941 200.415 144.646 180.112 154.43 166.238C157.134 162.404 155.977 162.252 149.046 165.533C143.521 168.145 136.749 172.595 130.139 177.956L125.653 181.591L130.489 176.115C140.172 165.148 147.3 158.986 151.58 157.884C159.831 155.757 162.086 154.508 164.994 150.462C168.644 145.381 168.876 145.416 156.331 149.12C136.908 154.856 125.799 159.681 123.322 163.462C120.105 168.371 117.968 194.753 119.325 212.811L119.892 220.375L128.273 219.978C136.819 219.573 147.506 220.589 153.151 222.343C156.113 223.262 155.706 223.344 146.08 223.773C140.463 224.022 134.983 224.497 133.903 224.827C118.258 229.62 117.188 230.368 113.503 239.091L111.205 244.531L117.716 245.046C122.383 245.415 125.93 246.27 130.241 248.065C137.202 250.962 138.402 252.038 133.684 251.152C129.579 250.382 116.826 251.526 111.405 253.15C107.263 254.391 104.971 256.595 102.18 262.012L100.864 264.565L105.403 264.569C112.743 264.577 127.886 267.572 124.082 268.264C118.097 269.352 106.536 272.976 102.431 275.05L97.527 277.529L90.5996 290.06C86.7892 296.952 83.8194 302.736 84.0001 302.917C84.1788 303.098 91.8566 304.413 101.062 305.845C121.424 309.01 133.125 311.164 131.546 311.461C130.897 311.582 119.407 311.233 106.012 310.687C92.6167 310.139 81.4802 309.915 81.2641 310.19C81.048 310.467 79.5259 310.94 77.8819 311.243C73.1385 312.115 72.6259 313.146 63.6558 339.852C56.0409 362.53 55.269 365.329 56.3021 366.533C59.6981 370.492 57.9991 369.553 53.0888 364.757C50.0051 361.744 47.4812 358.613 47.4812 357.802C47.4812 356.125 51.1679 343.23 54.1239 334.571C55.7973 329.666 55.8936 328.941 54.7406 329.927C53.9884 330.57 50.5453 332.801 47.0884 334.889C43.6316 336.975 39.4833 339.925 37.8708 341.443C34.4807 344.641 34.4847 344.643 33.8915 340.013C33.4692 336.708 33.6224 336.332 36.5254 333.573L39.6051 330.64L35.8831 331.752C30.1911 333.451 27.7615 337.444 22.751 353.35L21.3879 357.674L30.5996 374.169C41.9758 394.537 40.5656 392.836 44.5822 391.013C46.3931 390.19 48.917 389.511 50.1937 389.501L52.5114 389.483L49.1625 392.701C44.2778 397.397 42.7772 403.403 45.5151 407.314C51.382 415.687 82.0851 412.676 99.7013 401.999C102.714 400.174 144.845 362.657 156.898 351.065C157.23 350.747 156.944 348.918 156.262 347.003C154.518 342.107 150.354 327.203 150.647 326.909C150.782 326.775 156.798 327.932 164.016 329.482L177.143 332.296L181.458 328.611C183.83 326.584 191.345 319.885 198.159 313.723L210.546 302.52L210.25 296.667C209.902 289.755 211.776 278.784 214.284 273.062L216.034 269.069L223.022 277.034C229.115 283.977 230.172 284.867 231.256 283.957C238.824 277.621 247.099 270.835 249 269.405C253.663 265.899 266.901 252.266 271.359 246.38C280.801 233.915 282.476 226.727 278.175 217.132C275.559 211.3 275.329 212.043 280.868 208.474C284.134 206.37 286.13 204.408 287.261 202.189C299.211 178.739 319.954 164.507 342.292 164.427C352.228 164.389 352.065 164.519 345.831 161.634C339.766 158.827 340.163 158.792 350.119 161.255C359.8 163.651 359.535 163.906 355.538 156.028C344.686 134.639 326.887 119.698 306.553 114.903C299.816 113.314 299.794 113.328 303.689 116.763C307.114 119.786 312.844 127.077 311.793 127.077C311.492 127.077 306.079 124.29 299.765 120.882C277.7 108.976 241.839 92.3396 240.46 93.3708C240.405 93.414 238.237 93.8991 235.644 94.4491ZM240.533 107.591C250.449 112.317 250.432 112.562 240.354 110.125C230.209 107.67 230.038 107.681 224.57 111.238C210.285 120.531 186.981 153.243 175.499 180.116C170.496 191.826 171.647 195.041 184.013 203.864C189.656 207.891 189.831 208.564 184.791 206.854C179.649 205.108 174.236 201.902 170.622 198.465L167.458 195.454L167.915 189.746C168.607 181.122 174.799 165.544 182.19 153.834C183.318 152.049 183.997 150.193 183.699 149.71C183.343 149.136 183.516 149.055 184.196 149.476C184.95 149.941 185.099 149.761 184.738 148.82C184.465 148.107 184.557 147.606 184.946 147.71C185.855 147.95 192.897 138.041 192.394 137.228C192.186 136.89 192.429 136.357 192.934 136.045C193.559 135.66 193.649 135.831 193.215 136.579C192.162 138.394 193.264 137.159 197.027 132.304C198.986 129.776 202.986 125.18 205.919 122.09C208.849 118.999 211.169 116.206 211.073 115.882C210.975 115.557 211.338 115.381 211.878 115.489C212.418 115.597 212.742 115.155 212.599 114.507C212.454 113.858 212.599 113.589 212.919 113.912C213.734 114.727 215.704 112.937 215.087 111.94C214.809 111.49 214.948 111.348 215.396 111.623C216.454 112.279 222.019 107.862 221.28 106.953C220.97 106.57 221.019 106.501 221.388 106.797C221.756 107.094 223.7 106.308 225.709 105.051C229.924 102.41 229.504 102.337 240.533 107.591ZM277.737 132.608L279.448 133.525L277.187 135.766C275.944 137 270.507 140.952 265.106 144.546L255.285 151.082L254.788 158.525C254.04 169.742 251.881 176.351 246.798 183.001L243.986 186.68L248.915 184.467C259.443 179.745 289.712 168.787 288.261 170.223C287.84 170.639 281.663 174.302 274.533 178.362C241.139 197.379 212.986 216.059 207.814 222.633C205.626 225.415 205.758 224.497 208.254 219.561C211.786 212.579 215.967 207.021 221.903 201.423C227.292 196.338 227.459 196.08 224.947 196.717C223.484 197.088 219.061 197.393 215.117 197.393H207.946L205.065 201.714L202.181 206.035L202.682 202.106C205.807 177.637 224.344 155.71 256.856 138.027L264.713 133.755L257.642 133.358L250.571 132.96L256.856 132.329C260.313 131.981 263.672 131.561 264.32 131.394C266.514 130.827 276.014 131.687 277.737 132.608ZM181.827 242.337C176.972 246.061 163.818 259.223 156.863 267.315C146.936 278.866 146.746 279.033 149.254 273.993C155.802 260.834 166.527 249.768 179.863 242.406C184.807 239.678 185.317 239.66 181.827 242.337ZM107.976 323.041C107.976 323.226 102.805 325.082 96.486 327.166L84.994 330.953L79.6417 338.416C74.5311 345.542 63.9798 356.901 63.9798 355.276C63.9798 352.939 71.8127 327.13 72.6868 326.592C74.8787 325.237 107.976 321.906 107.976 323.041ZM275.319 361.161C254.965 369.899 226.951 381.753 220.127 384.51C216.346 386.04 213.253 387.533 213.253 387.828C213.253 389.138 256.204 413.053 258.559 413.053C258.985 413.053 261.399 408.722 263.923 403.429C266.445 398.135 272.693 385.408 277.81 375.145C282.924 364.883 286.843 356.514 286.519 356.547C286.192 356.579 281.153 358.655 275.319 361.161ZM314.825 370.253C298.183 375.173 289.164 390.725 289.101 414.612L289.068 426.778L297.044 429.705C303.151 431.946 327.199 439.765 341.339 444.106C342.679 444.518 342.586 433.517 341.243 432.663C337.933 430.557 331.181 392.164 333.394 388.03C334.021 386.857 334.038 386.341 333.451 386.341C331.923 386.341 324.668 378.975 321.368 374.075L318.137 369.273L314.825 370.253Z" fill="#297540"/>
<path fill-rule="evenodd" clip-rule="evenodd" d="M319.914 0.35791C320.891 0.546465 322.305 0.538618 323.057 0.342206C323.807 0.145794 323.008 -0.00937888 321.279 0.000441719C319.551 0.0082982 318.936 0.169354 319.914 0.35791ZM348.198 0.35791C349.174 0.546465 350.588 0.538618 351.34 0.342206C352.091 0.145794 351.291 -0.00937888 349.563 0.000441719C347.834 0.0082982 347.22 0.169354 348.198 0.35791ZM316.369 7.415C317.125 7.61141 318.363 7.61141 319.119 7.415C319.875 7.21662 319.256 7.05557 317.744 7.05557C316.232 7.05557 315.613 7.21662 316.369 7.415ZM413.986 120.006C416.551 122.599 418.827 124.72 419.044 124.72C419.26 124.72 417.337 122.599 414.772 120.006C412.206 117.414 409.93 115.292 409.714 115.292C409.498 115.292 411.421 117.414 413.986 120.006ZM239.91 161.384C231.841 168.064 214.039 186.947 214.039 188.825C214.039 189.049 215.162 188.593 216.537 187.814C219.994 185.847 233.68 172.03 233.68 170.504C233.68 168.705 237.282 164.248 239.7 163.058C241.475 162.184 244.738 158.503 243.738 158.503C243.547 158.503 241.825 159.799 239.91 161.384ZM488.444 186.001C488.444 187.945 488.597 188.741 488.784 187.768C488.972 186.796 488.972 185.205 488.784 184.233C488.597 183.261 488.444 184.056 488.444 186.001ZM109.761 187.572C109.761 189.516 109.915 190.312 110.101 189.34C110.29 188.367 110.29 186.776 110.101 185.804C109.915 184.832 109.761 185.627 109.761 187.572ZM495.552 193.857C495.552 196.666 495.695 197.815 495.868 196.41C496.043 195.006 496.043 192.708 495.868 191.304C495.695 189.899 495.552 191.048 495.552 193.857ZM495.558 217.819C495.562 220.844 495.703 221.985 495.874 220.355C496.045 218.725 496.041 216.25 495.868 214.855C495.693 213.461 495.554 214.795 495.558 217.819ZM488.454 225.676C488.459 227.836 488.613 228.628 488.793 227.434C488.974 226.238 488.97 224.47 488.784 223.505C488.597 222.539 488.448 223.515 488.454 225.676ZM394.995 239.032C394.999 242.057 395.14 243.198 395.311 241.568C395.482 239.937 395.478 237.463 395.305 236.068C395.13 234.673 394.991 236.007 394.995 239.032ZM487.627 238.639C487.627 240.151 487.788 240.77 487.986 240.014C488.183 239.258 488.183 238.02 487.986 237.264C487.788 236.508 487.627 237.127 487.627 238.639ZM380.94 303.259L378.632 305.812L381.185 303.504C382.589 302.235 383.738 301.086 383.738 300.951C383.738 300.344 383.09 300.878 380.94 303.259ZM30.0104 316.188C30.9866 316.377 32.4007 316.369 33.153 316.173C33.9033 315.976 33.1039 315.821 31.3754 315.831C29.647 315.839 29.0323 316 30.0104 316.188ZM164.794 358.843C164.794 361.652 164.938 362.801 165.11 361.397C165.285 359.992 165.285 357.694 165.11 356.29C164.938 354.885 164.794 356.034 164.794 358.843ZM158.576 356.608C158.24 357.15 158.358 357.301 158.87 356.985C159.405 356.657 159.847 357.427 160.045 359.024C160.361 361.571 160.363 361.569 160.489 358.647C160.613 355.769 159.697 354.793 158.576 356.608ZM136.603 379.466L134.295 382.02L136.849 379.712C139.229 377.561 139.763 376.913 139.156 376.913C139.021 376.913 137.872 378.062 136.603 379.466ZM347.813 386.341C347.813 388.285 347.966 389.081 348.153 388.109C348.341 387.136 348.341 385.545 348.153 384.573C347.966 383.601 347.813 384.396 347.813 386.341ZM138.027 423.023C138.783 423.219 140.021 423.219 140.777 423.023C141.533 422.824 140.914 422.663 139.402 422.663C137.89 422.663 137.271 422.824 138.027 423.023Z" fill="#60674E"/>
</svg>
